<svg xmlns="http://www.w3.org/2000/svg" width="160.058" height="53" viewBox="0 0 160.058 53">
    <g>
        <path fill="#1fa17e" d="M169.016 129.946a26.506 26.506 0 0 0 .493 52.971v-.426a5.885 5.885 0 0 0-4.389-5.729 21 21 0 0 1-12.366-8.791h4.736l9.9-17.7a6.351 6.351 0 0 0 0-6.2l-1.492-2.666-14.08 25.015a20.99 20.99 0 0 1 17.409-30.951l-2.253 4.015 9.993 17.788a6.352 6.352 0 0 0 5.538 3.241h2.75L171.2 135.466a20.982 20.982 0 0 1 17.447 31.1l-2.357-4.234h-19.767a6.351 6.351 0 0 0-5.535 3.236l-1.351 2.4 28.133.038a21 21 0 0 1-12.34 8.753 5.887 5.887 0 0 0-4.393 5.73v.426a26.506 26.506 0 1 0-2.022-52.971z" transform="translate(-101 -627.001) translate(-42.764 497.084)"/>
        <g>
            <text fill="#fff" font-family="ProductSans-Bold, Product Sans" font-size="29px" font-weight="700" transform="translate(-101 -627.001) translate(170.058 635.03) translate(0 28)">
                <tspan x="0" y="0">ALTOF</tspan>
            </text>
        </g>
    </g>
</svg>
